<svg width="29" height="29" viewBox="0 0 29 29" fill="none" xmlns="http://www.w3.org/2000/svg">
<path id="Vector" d="M26.0952 12.133H17.1809V2.89438C17.1809 1.57146 16.1096 0.5 14.7869 0.5C13.4643 0.5 12.393 1.57146 12.393 2.89438V12.133H2.88298C1.57125 12.133 0.5 13.2044 0.5 14.5273C0.5 15.8503 1.57125 16.9217 2.89391 16.9217H12.404V26.1056C12.404 27.4285 13.4752 28.5 14.7979 28.5C16.1205 28.5 17.1918 27.4285 17.1918 26.1056V16.9217H26.1061C27.4288 16.9217 28.5 15.8503 28.5 14.5273C28.4836 13.2044 27.4178 12.133 26.0952 12.133Z" fill="white"/>
</svg>
