<svg width="12" height="13" viewBox="0 0 12 13" fill="none" xmlns="http://www.w3.org/2000/svg">
<path id="Vector" fill-rule="evenodd" clip-rule="evenodd" d="M6.00273 0.567841C2.69599 0.567841 0 3.26002 0 6.5662C0 9.87239 2.69654 12.5678 6.00273 12.5678C9.30892 12.5678 12 9.87239 12 6.5662C12 3.26002 9.30892 0.567841 6.00273 0.567841ZM6.00273 1.65845C6.64747 1.65737 7.28609 1.78359 7.88195 2.02986C8.47781 2.27613 9.01919 2.63761 9.47505 3.09356C9.9309 3.54952 10.2923 4.09098 10.5384 4.6869C10.7845 5.28281 10.9106 5.92146 10.9094 6.5662C10.9107 7.21112 10.7847 7.84996 10.5386 8.44609C10.2925 9.04222 9.93123 9.58393 9.47541 10.0402C9.01958 10.4964 8.4782 10.8582 7.88228 11.1048C7.28637 11.3514 6.64765 11.4779 6.00273 11.4772C5.35753 11.478 4.71851 11.3515 4.12226 11.105C3.52601 10.8585 2.98424 10.4968 2.52796 10.0406C2.07169 9.58448 1.70987 9.04278 1.46323 8.44659C1.21659 7.85039 1.08997 7.2114 1.09061 6.5662C1.09061 3.84949 3.28601 1.65845 6.00273 1.65845ZM5.994 2.74143C5.92192 2.74214 5.8507 2.75712 5.78445 2.78553C5.71821 2.81394 5.65825 2.85519 5.60804 2.90692C5.55784 2.95864 5.51839 3.0198 5.49198 3.08687C5.46556 3.15394 5.4527 3.22557 5.45415 3.29764V6.5662C5.45445 6.63796 5.46891 6.70895 5.4967 6.77511C5.52449 6.84127 5.56507 6.90129 5.6161 6.95174L7.79733 9.13405C7.84778 9.18597 7.90807 9.22732 7.97468 9.2557C8.04128 9.28407 8.11287 9.2989 8.18527 9.29932C8.25766 9.29973 8.32942 9.28573 8.39634 9.25812C8.46327 9.23051 8.52403 9.18985 8.57508 9.13852C8.62612 9.08718 8.66644 9.02619 8.69367 8.95911C8.7209 8.89203 8.73449 8.8202 8.73367 8.7478C8.73284 8.67541 8.71761 8.60391 8.68886 8.53746C8.66011 8.47102 8.61841 8.41097 8.56621 8.36081L6.54585 6.34045V3.29764C6.54732 3.22456 6.53408 3.15194 6.50692 3.08408C6.47976 3.01622 6.43924 2.95451 6.38776 2.90263C6.33628 2.85074 6.27489 2.80973 6.20725 2.78204C6.13961 2.75435 6.06709 2.74054 5.994 2.74143Z" fill="black"/>
</svg>
