<svg width="30" height="36" viewBox="0 0 30 36" fill="none" xmlns="http://www.w3.org/2000/svg">
<path id="Vector" d="M29.7838 6.87258C29.5588 6.05248 29.4088 5.59687 29.4088 5.59687C29.165 4.74944 28.5462 4.74943 27.6274 4.60364L22.6487 3.99312C22.0299 3.89289 22.0299 3.89289 21.7862 3.37349C20.9704 1.5875 20.7173 0.548706 19.8266 0.548706H10.1694C9.27865 0.548706 9.03488 1.5875 8.21917 3.3826C7.9754 3.89289 7.9754 3.89289 7.35659 4.00223L2.36859 4.61275C1.45912 4.75855 0.802808 4.84056 0.559034 5.68799C0.559034 5.68799 0.446523 6.06159 0.212124 6.87258C-0.0879058 7.95693 -0.209793 7.83847 0.82156 7.83847H29.1744C30.2057 7.84759 30.0932 7.95693 29.7838 6.87258ZM26.5679 10.7544H3.42807C1.87167 10.7544 1.79666 10.9549 1.89042 12.0939L3.64372 34.2001C3.79373 35.3209 3.90624 35.5487 5.2845 35.5487H24.7114C26.0897 35.5487 26.2022 35.3209 26.3522 34.2001L28.1055 12.0939C28.1993 10.9457 28.1243 10.7544 26.5679 10.7544Z" fill="white"/>
</svg>
