<svg width="40" height="40" viewBox="0 0 40 40" fill="none" xmlns="http://www.w3.org/2000/svg">
<g id="Group 7">
<path id="Vector" d="M33.8194 0.570952C33.0581 -0.190317 31.8452 -0.190317 31.0839 0.570952L16.3872 15.2665C16.1549 15.4859 16.0001 15.7697 15.8968 16.0794L13.4968 24.0917C13.2904 24.7755 13.4839 25.5109 13.9872 26.0141C14.3484 26.3883 14.8517 26.5818 15.3549 26.5818C15.5355 26.5818 15.7291 26.5559 15.9097 26.5044L23.9226 24.1046C24.2323 24.0013 24.5162 23.8465 24.7355 23.6143L39.4323 8.91864C39.7936 8.55742 40 8.06714 40 7.55102C40 7.03498 39.7936 6.54469 39.4323 6.18339L33.8194 0.570952Z" fill="#0077B6"/>
<path id="Vector_2" d="M38.0645 18.066C36.9953 18.066 36.129 18.9329 36.129 20.0014V32.9036C36.129 34.6827 34.6818 36.1291 32.9032 36.1291H7.09677C5.31817 36.1291 3.87097 34.6827 3.87097 32.9036V7.09914C3.87097 5.32005 5.31817 3.87359 7.09677 3.87359H20C21.0692 3.87359 21.9355 3.00672 21.9355 1.93826C21.9355 0.869803 21.0692 0.00292969 20 0.00292969H7.09677C3.1836 0.00292969 0 3.1869 0 7.09914V32.9036C0 36.8158 3.1836 39.9998 7.09677 39.9998H32.9032C36.8164 39.9998 40 36.8158 40 32.9036V20.0014C40 18.9329 39.1337 18.066 38.0645 18.066Z" fill="#0077B6"/>
</g>
</svg>
