<svg width="30" height="31" viewBox="0 0 30 31" fill="none" xmlns="http://www.w3.org/2000/svg">
<g id="Group 7">
<path id="Vector" d="M25.3646 0.928248C24.7936 0.357251 23.884 0.357251 23.313 0.928248L12.2904 11.9508C12.1162 12.1153 12.0001 12.3282 11.9227 12.5605L10.1227 18.5702C9.96783 19.0831 10.113 19.6347 10.4904 20.0121C10.7614 20.2928 11.1388 20.4379 11.5162 20.4379C11.6517 20.4379 11.7969 20.4185 11.9324 20.3798L17.942 18.5798C18.1743 18.5024 18.3872 18.3863 18.5517 18.2121L29.5743 7.18951C29.8453 6.91857 30.0001 6.55083 30.0001 6.16371C30.0001 5.77665 29.8453 5.4089 29.5743 5.13791L25.3646 0.928248Z" fill="white"/>
<path id="Vector_2" d="M28.5484 14.0484C27.7465 14.0484 27.0968 14.6986 27.0968 15.5V25.1774C27.0968 26.5118 26.0114 27.5968 24.6774 27.5968H5.32258C3.98863 27.5968 2.90323 26.5118 2.90323 25.1774V5.82258C2.90323 4.48815 3.98863 3.40323 5.32258 3.40323H15C15.8019 3.40323 16.4516 2.75302 16.4516 1.95161C16.4516 1.15021 15.8019 0.5 15 0.5H5.32258C2.3877 0.5 0 2.88816 0 5.82258V25.1774C0 28.1118 2.3877 30.5 5.32258 30.5H24.6774C27.6123 30.5 30 28.1118 30 25.1774V15.5C30 14.6986 29.3503 14.0484 28.5484 14.0484Z" fill="white"/>
</g>
</svg>
