<svg width="40" height="36" viewBox="0 0 40 36" fill="none" xmlns="http://www.w3.org/2000/svg">
<path id="Vector" d="M36 0.5H4C1.8 0.5 0.02 2.46875 0.02 4.875L0 31.125C0 33.5312 1.8 35.5 4 35.5H36C38.2 35.5 40 33.5312 40 31.125V4.875C40 2.46875 38.2 0.5 36 0.5ZM35.2 9.79688L21.06 19.4656C20.42 19.9031 19.58 19.9031 18.94 19.4656L4.8 9.79688C4.3 9.44687 4 8.85625 4 8.22188C4 6.75625 5.46 5.88125 6.6 6.64687L20 15.8125L33.4 6.64687C34.54 5.88125 36 6.75625 36 8.22188C36 8.85625 35.7 9.44687 35.2 9.79688Z" fill="black"/>
</svg>
