<svg width="40" height="40" viewBox="0 0 40 40" fill="none" xmlns="http://www.w3.org/2000/svg">
<path id="Vector" d="M20 0C8.97161 0 0 8.97181 0 19.9996C0 31.0278 8.97161 40 20 40C31.0277 40 40 31.0278 40 19.9996C40 8.97181 31.0277 0 20 0ZM25.6526 12.6254C25.6526 12.7201 25.6149 12.8109 25.548 12.8779C25.481 12.9448 25.3902 12.9825 25.2955 12.9825L23.022 12.9839C21.5219 12.9839 21.2476 13.568 21.2476 14.7185V17.1052H25.1469C25.2494 17.1052 25.3473 17.1495 25.4147 17.2266C25.4822 17.3037 25.5137 17.4062 25.5012 17.508L24.9459 21.8046C24.9348 21.8907 24.8927 21.9698 24.8275 22.0271C24.7623 22.0844 24.6785 22.116 24.5917 22.116H21.2476V32.785C21.2476 32.8797 21.21 32.9705 21.143 33.0375C21.0761 33.1044 20.9853 33.1421 20.8906 33.1421H16.4542C16.3595 33.1421 16.2687 33.1044 16.2017 33.0375C16.1347 32.9705 16.0971 32.8797 16.0971 32.785V22.116H12.7424C12.6477 22.116 12.5568 22.0784 12.4899 22.0114C12.4229 21.9445 12.3853 21.8536 12.3853 21.7589V17.4623C12.3853 17.3676 12.4229 17.2768 12.4899 17.2098C12.5568 17.1428 12.6477 17.1052 12.7424 17.1052H16.0971V14.2933C16.0971 10.569 18.351 8.25588 21.98 8.25588C23.5401 8.25588 24.9188 8.37193 25.3423 8.42799C25.4281 8.43933 25.5069 8.48147 25.564 8.54656C25.621 8.61166 25.6525 8.69527 25.6526 8.78185V12.6254Z" fill="#231F20"/>
</svg>
