<svg width="41" height="40" viewBox="0 0 41 40" fill="none" xmlns="http://www.w3.org/2000/svg">
<g id="Group 2">
<path id="Vector" d="M9.36472 24.1725L7.9724 29.3703L2.88348 29.478C1.36264 26.6571 0.5 23.4297 0.5 20C0.5 16.6835 1.30655 13.556 2.73622 10.8022H2.73731L7.26788 11.6328L9.25254 16.1362C8.83715 17.3473 8.61075 18.6473 8.61075 20C8.6109 21.4681 8.87684 22.8748 9.36472 24.1725Z" fill="#FBBB00"/>
<path id="Vector_2" d="M40.1505 16.2638C40.3802 17.4736 40.5 18.7231 40.5 20C40.5 21.4319 40.3494 22.8286 40.0627 24.1759C39.0891 28.7605 36.5451 32.7638 33.021 35.5967L33.0199 35.5956L27.3134 35.3045L26.5058 30.2627C28.8442 28.8913 30.6717 26.7451 31.6343 24.1759H20.9399V16.2638H40.1505Z" fill="#518EF8"/>
<path id="Vector_3" d="M33.0187 35.5956L33.0197 35.5967C29.5924 38.3516 25.2385 40 20.4991 40C12.8827 40 6.26081 35.7429 2.88281 29.478L9.36405 24.1726C11.053 28.6802 15.4013 31.8891 20.4991 31.8891C22.6902 31.8891 24.743 31.2967 26.5044 30.2626L33.0187 35.5956Z" fill="#28B446"/>
<path id="Vector_4" d="M33.2646 4.60438L26.7856 9.90875C24.9625 8.76922 22.8076 8.11094 20.4989 8.11094C15.2857 8.11094 10.8561 11.467 9.25175 16.1363L2.73645 10.8022H2.73535C6.0639 4.38461 12.7693 0 20.4989 0C25.3515 0 29.8009 1.72859 33.2646 4.60438Z" fill="#F14336"/>
</g>
</svg>
