<svg width="50" height="50" viewBox="0 0 50 50" fill="none" xmlns="http://www.w3.org/2000/svg">
<path id="Vector" d="M43.75 17.8571H31.25V7.14286C31.25 3.20357 28.4469 0 25 0H20.3125C19.8981 0 19.5007 0.188137 19.2076 0.523023C18.9146 0.85791 18.75 1.31211 18.75 1.78571V10.2393L12.7063 22.3286C12.5703 22.5978 12.4991 22.9034 12.5 23.2143V48.2143C12.5 48.6879 12.6646 49.1421 12.9576 49.477C13.2507 49.8119 13.6481 50 14.0625 50H39.1406C40.3494 49.9995 41.532 49.5984 42.5454 48.8454C43.5587 48.0923 44.3593 47.0196 44.85 45.7571L49.8625 32.8679C49.953 32.6402 49.9999 32.393 50 32.1429V25C50 21.0607 47.1969 17.8571 43.75 17.8571ZM0 23.2143V48.2143C0 48.6879 0.16462 49.1421 0.457646 49.477C0.750671 49.8119 1.1481 50 1.5625 50H9.375V21.4286H1.5625C1.1481 21.4286 0.750671 21.6167 0.457646 21.9516C0.16462 22.2865 0 22.7407 0 23.2143Z" fill="#0077B6"/>
</svg>
