<svg width="30" height="31" viewBox="0 0 30 31" fill="none" xmlns="http://www.w3.org/2000/svg">
<path id="19. Next" d="M15 0.5C12.0333 0.5 9.13319 1.37973 6.66645 3.02796C4.19971 4.67618 2.27713 7.01886 1.14181 9.75975C0.00649929 12.5006 -0.290551 15.5166 0.288227 18.4264C0.867006 21.3361 2.29562 24.0088 4.3934 26.1066C6.49119 28.2044 9.16394 29.633 12.0737 30.2118C14.9834 30.7906 17.9994 30.4935 20.7403 29.3582C23.4811 28.2229 25.8238 26.3003 27.472 23.8335C29.1203 21.3668 30 18.4667 30 15.5C29.9967 11.5228 28.4153 7.70938 25.6029 4.89705C22.7906 2.08473 18.9772 0.50331 15 0.5ZM20.8013 16.46L13.3013 22.71C13.1752 22.8152 13.0296 22.8946 12.8729 22.9435C12.7161 22.9925 12.5513 23.0101 12.3878 22.9954C12.2242 22.9806 12.0652 22.9338 11.9197 22.8576C11.7742 22.7814 11.6452 22.6773 11.54 22.5512C11.4348 22.4252 11.3554 22.2796 11.3065 22.1229C11.2575 21.9661 11.2399 21.8013 11.2546 21.6377C11.2694 21.4742 11.3162 21.3152 11.3924 21.1697C11.4686 21.0242 11.5727 20.8952 11.6988 20.79L18.0463 15.5L11.6988 10.21C11.5727 10.1048 11.4686 9.97575 11.3924 9.8303C11.3162 9.68484 11.2694 9.5258 11.2546 9.36225C11.2399 9.1987 11.2575 9.03386 11.3065 8.87712C11.3554 8.72038 11.4348 8.57482 11.54 8.44875C11.6452 8.32268 11.7742 8.21857 11.9197 8.14236C12.0652 8.06616 12.2242 8.01935 12.3878 8.00461C12.5513 7.98987 12.7161 8.00748 12.8729 8.05645C13.0296 8.10542 13.1752 8.18478 13.3013 8.29L20.8013 14.54C20.9419 14.6573 21.0551 14.8041 21.1328 14.97C21.2104 15.1359 21.2507 15.3168 21.2507 15.5C21.2507 15.6832 21.2104 15.8641 21.1328 16.03C21.0551 16.1959 20.9419 16.3427 20.8013 16.46Z" fill="white"/>
</svg>
