<svg width="25" height="26" viewBox="0 0 25 26" fill="none" xmlns="http://www.w3.org/2000/svg">
<g id="Vector">
<mask id="path-1-inside-1_39_132" fill="white">
<path d="M0.349138 8.66708L9.72407 0.334119C9.8738 0.199591 10.0594 0.111424 10.2582 0.0803242C10.4571 0.0492243 10.6608 0.076529 10.8444 0.158923C11.0281 0.241317 11.1838 0.375256 11.2928 0.544479C11.4018 0.713701 11.4594 0.910927 11.4584 1.11221V4.45269C14.5876 5.29223 25 9.20039 25 24.0279C24.9996 24.2697 24.9151 24.5038 24.761 24.6902C24.6068 24.8765 24.3926 25.0034 24.1552 25.0491C23.9177 25.0948 23.6717 25.0564 23.4594 24.9406C23.2472 24.8248 23.0818 24.6387 22.9917 24.4143C19.9032 16.6928 13.8824 15.0814 11.4595 14.7449V17.7781C11.4597 17.9792 11.4017 18.1761 11.2925 18.3449C11.1833 18.5138 11.0275 18.6474 10.844 18.7297C10.6605 18.812 10.4571 18.8394 10.2584 18.8086C10.0597 18.7778 9.87408 18.6902 9.72407 18.5562L0.349138 10.2233C0.239336 10.1255 0.151461 10.0057 0.0912857 9.87159C0.0311108 9.73748 1.90735e-06 9.59216 1.90735e-06 9.44517C1.90735e-06 9.29819 0.0311108 9.15287 0.0912857 9.01876C0.151461 8.88465 0.239336 8.7648 0.349138 8.66708Z"/>
</mask>
<path d="M0.349138 8.66708L-2.97491 4.93202L-2.97261 4.92998L0.349138 8.66708ZM9.72407 0.334119L13.0657 4.05343L13.0558 4.06235L13.0458 4.07123L9.72407 0.334119ZM11.4584 1.11221H6.45843V1.10059L6.45849 1.08897L11.4584 1.11221ZM11.4584 4.45269L10.1628 9.28189L6.45843 8.28803V4.45269H11.4584ZM25 24.0279H30L30 24.0357L25 24.0279ZM22.9917 24.4143L18.3517 26.2773L18.3493 26.2712L22.9917 24.4143ZM11.4595 14.7449H6.45947V9.00266L12.1472 9.79246L11.4595 14.7449ZM11.4595 17.7781L6.45947 17.7834V17.7781H11.4595ZM9.72407 18.5562L13.0458 14.8191L13.054 14.8264L9.72407 18.5562ZM0.349138 10.2233L-2.97261 13.9604L-2.97491 13.9583L0.349138 10.2233ZM-2.97261 4.92998L6.40232 -3.40299L13.0458 4.07123L3.67089 12.4042L-2.97261 4.92998ZM6.3824 -3.38519C7.2523 -4.16676 8.33038 -4.67897 9.48574 -4.85964L11.0308 5.02029C11.7884 4.90181 12.4953 4.56594 13.0657 4.05343L6.3824 -3.38519ZM9.48574 -4.85964C10.6411 -5.04031 11.8241 -4.88169 12.891 -4.40302L8.79778 4.72086C9.49742 5.03475 10.2731 5.13876 11.0308 5.02029L9.48574 -4.85964ZM12.891 -4.40302C13.958 -3.92434 14.8631 -3.1462 15.4963 -2.16305L7.08936 3.252C7.50463 3.89672 8.09813 4.40698 8.79778 4.72086L12.891 -4.40302ZM15.4963 -2.16305C16.1296 -1.17989 16.4638 -0.0340158 16.4584 1.13545L6.45849 1.08897C6.45492 1.85587 6.67409 2.60729 7.08936 3.252L15.4963 -2.16305ZM16.4584 1.11221V4.45269H6.45843V1.11221H16.4584ZM12.7541 -0.37652C14.7802 0.167084 19.0693 1.66606 22.9029 5.42437C26.8745 9.31787 30 15.2964 30 24.0279H20C20 17.9319 17.9193 14.5426 15.9024 12.5652C13.7475 10.4527 11.2658 9.57784 10.1628 9.28189L12.7541 -0.37652ZM30 24.0357C29.9978 25.4384 29.5076 26.7966 28.6135 27.8773L20.9084 21.503C20.3226 22.2111 20.0015 23.101 20 24.02L30 24.0357ZM28.6135 27.8773C27.7195 28.958 26.4772 29.694 25.0999 29.959L23.2104 20.1391C22.3081 20.3128 21.4942 20.7949 20.9084 21.503L28.6135 27.8773ZM25.0999 29.959C23.7226 30.224 22.296 30.0016 21.0648 29.3299L25.8541 20.5513C25.0474 20.1112 24.1128 19.9655 23.2104 20.1391L25.0999 29.959ZM21.0648 29.3299C19.8335 28.6581 18.8743 27.5789 18.3517 26.2772L27.6317 22.5514C27.2893 21.6985 26.6608 20.9914 25.8541 20.5513L21.0648 29.3299ZM18.3493 26.2712C16.172 20.8278 12.1816 19.8932 10.7718 19.6974L12.1472 9.79246C15.5831 10.2696 23.6343 12.5577 27.6341 22.5574L18.3493 26.2712ZM16.4595 14.7449V17.7781H6.45947V14.7449H16.4595ZM16.4595 17.7729C16.4607 18.9393 16.1242 20.0811 15.4908 21.0605L7.09416 15.6294C6.67912 16.271 6.45868 17.0191 6.45948 17.7834L16.4595 17.7729ZM15.4908 21.0605C14.8573 22.0399 13.9539 22.8149 12.8896 23.2921L8.79839 14.1673C8.10111 14.4799 7.50921 14.9877 7.09416 15.6294L15.4908 21.0605ZM12.8896 23.2921C11.8253 23.7693 10.6457 23.9282 9.4931 23.7497L11.0237 13.8675C10.2685 13.7505 9.49566 13.8547 8.79839 14.1673L12.8896 23.2921ZM9.4931 23.7497C8.34051 23.5712 7.2642 23.0628 6.39414 22.286L13.054 14.8264C12.484 14.3175 11.7788 13.9844 11.0237 13.8675L9.4931 23.7497ZM6.40232 22.2933L-2.97261 13.9604L3.67089 6.48616L13.0458 14.8191L6.40232 22.2933ZM-2.97491 13.9583C-3.61179 13.3915 -4.12149 12.6964 -4.47052 11.9185L4.65309 7.82465C4.42441 7.31502 4.09046 6.85955 3.67319 6.4882L-2.97491 13.9583ZM-4.47052 11.9185C-4.81956 11.1407 -5 10.2977 -5 9.44517H5C5 8.88658 4.88178 8.33431 4.65309 7.82465L-4.47052 11.9185ZM-5 9.44517C-5 8.59261 -4.81956 7.74969 -4.47052 6.97182L4.65309 11.0657C4.88178 10.556 5 10.0038 5 9.44517H-5ZM-4.47052 6.97182C-4.12149 6.19398 -3.61179 5.49881 -2.97491 4.93202L3.67319 12.4021C4.09046 12.0308 4.42441 11.5753 4.65309 11.0657L-4.47052 6.97182Z" fill="black" mask="url(#path-1-inside-1_39_132)"/>
</g>
</svg>
