<svg width="30" height="31" viewBox="0 0 30 31" fill="none" xmlns="http://www.w3.org/2000/svg">
<path id="Vector" d="M29.5166 10.9833L19.5166 0.983333C19.3631 0.833415 19.182 0.714572 18.9833 0.633333C18.7767 0.549362 18.5563 0.504163 18.3333 0.5H5C3.67391 0.5 2.40215 1.02678 1.46446 1.96447C0.526784 2.90215 0 4.17392 0 5.5V25.5C0 26.8261 0.526784 28.0979 1.46446 29.0355C2.40215 29.9732 3.67391 30.5 5 30.5H25C26.3261 30.5 27.5978 29.9732 28.5355 29.0355C29.4732 28.0979 30 26.8261 30 25.5V12.1667C30.0012 11.9473 29.9592 11.7299 29.8763 11.5268C29.7933 11.3238 29.6711 11.1391 29.5166 10.9833ZM9.99999 3.83333H16.6667V7.16667H9.99999V3.83333ZM20 27.1667H9.99999V22.1667C9.99999 21.7246 10.1756 21.3007 10.4881 20.9882C10.8007 20.6756 11.2246 20.5 11.6667 20.5H18.3333C18.7753 20.5 19.1993 20.6756 19.5118 20.9882C19.8244 21.3007 20 21.7246 20 22.1667V27.1667ZM26.6666 25.5C26.6666 25.942 26.491 26.366 26.1785 26.6785C25.8659 26.9911 25.442 27.1667 25 27.1667H23.3333V22.1667C23.3333 20.8406 22.8065 19.5688 21.8688 18.6311C20.9312 17.6934 19.6594 17.1667 18.3333 17.1667H11.6667C10.3406 17.1667 9.06881 17.6934 8.13113 18.6311C7.19344 19.5688 6.66666 20.8406 6.66666 22.1667V27.1667H5C4.55797 27.1667 4.13405 26.9911 3.82149 26.6785C3.50892 26.366 3.33333 25.942 3.33333 25.5V5.5C3.33333 5.05797 3.50892 4.63405 3.82149 4.32149C4.13405 4.00893 4.55797 3.83333 5 3.83333H6.66666V8.83333C6.66666 9.27536 6.84226 9.69928 7.15482 10.0118C7.46738 10.3244 7.8913 10.5 8.33333 10.5H18.3333C18.7753 10.5 19.1993 10.3244 19.5118 10.0118C19.8244 9.69928 20 9.27536 20 8.83333V6.18333L26.6666 12.85V25.5Z" fill="white"/>
</svg>
