<svg width="20" height="20" viewBox="0 0 20 20" fill="none" xmlns="http://www.w3.org/2000/svg">
<path id="Vector" d="M19.7338 18.4482L14.5745 13.2889C15.7354 11.8401 16.3666 10.0383 16.3636 8.18182C16.3636 3.66318 12.7007 0 8.1818 0C3.66318 0 0 3.66318 0 8.18182C0 12.7005 3.66318 16.3636 8.1818 16.3636C10.1136 16.3636 11.8891 15.6941 13.2888 14.5743L18.4481 19.7336C18.5325 19.8182 18.6326 19.8852 18.7429 19.9309C18.8532 19.9767 18.9715 20.0001 19.0909 20C19.2707 20 19.4464 19.9467 19.5959 19.8468C19.7454 19.7469 19.8619 19.605 19.9308 19.4389C19.9996 19.2728 20.0176 19.09 19.9826 18.9137C19.9475 18.7373 19.8609 18.5753 19.7338 18.4482ZM8.1818 14.5455C4.66726 14.5455 1.81818 11.6964 1.81818 8.18182C1.81818 4.66727 4.66726 1.81818 8.1818 1.81818C11.6966 1.81818 14.5454 4.66727 14.5454 8.18182C14.5454 11.6964 11.6966 14.5455 8.1818 14.5455Z" fill="black"/>
</svg>
