<svg width="50" height="50" viewBox="0 0 50 50" fill="none" xmlns="http://www.w3.org/2000/svg">
<path id="Vector" d="M4.01664 48.6929C8.86382 36.5746 17.3222 31.9812 23.081 30.2399V29.3542H27.081L27.6312 33.3162C27.4591 33.3401 27.2755 33.3678 27.081 33.4001V35.4206L47.9176 18.7556L46.6443 20.1882L46.6425 20.1865M4.01664 48.6929L2.09163 47.92H4C4 44.6079 4.27691 41.6104 4.76995 38.8967M4.01664 48.6929C3.83644 49.1417 3.50569 49.5139 3.08111 49.7455L2.07922 47.92H2.08265H2.08437L2.08541 47.9205L4.01664 48.6929ZM4.76995 38.8967C12.0218 28.6429 21.9282 26.0313 26.5309 25.3922L31.081 24.7604V29.3542V31.1547M4.76995 38.8967C6.32715 30.326 10.0404 24.5871 13.9949 20.7103C19.3119 15.4978 25.3598 13.3735 28.1197 12.6331L31.0831 11.838V8.76969V6.35652L45.0316 18.7547M4.76995 38.8967L45.0316 18.7547M31.081 31.1547L27.8945 33.9871M31.081 31.1547V35.4206C31.0806 35.052 30.9739 34.6913 30.7737 34.3817C30.5727 34.071 30.2861 33.8251 29.9485 33.6738C29.6109 33.5224 29.2367 33.472 28.871 33.5286C28.5083 33.5848 28.1693 33.7439 27.8945 33.9871M31.081 31.1547L45.0316 18.7547M27.8945 33.9871L27.8879 33.9929C27.8901 33.991 27.8923 33.989 27.8945 33.9871ZM45.0316 18.7547L46.6425 20.1865M46.6425 20.1865C46.4404 20.0067 46.2787 19.7862 46.168 19.5394C46.0572 19.2926 46 19.0252 46 18.7547C46 18.4842 46.0572 18.2167 46.168 17.9699C46.2787 17.7232 46.4404 17.5026 46.6425 17.3228L47.9168 18.7547L46.6425 20.1865ZM2.08333 47.9166L1.16539 46.2341C1.55598 46.021 2.00854 45.9505 2.44547 46.0345C2.88239 46.1186 3.27647 46.3521 3.56011 46.6949C3.84377 47.0378 3.99929 47.4687 3.99999 47.9137L2.08345 47.9168L2.08339 47.9168L2.08333 47.9166ZM2.08333 47.9166L1.16536 46.2341C0.774787 46.4472 0.470463 46.7896 0.304649 47.2026L2.08333 47.9166Z" fill="black" stroke="black" stroke-width="8"/>
</svg>
