<?xml version="1.0" standalone="no"?>
<!DOCTYPE svg PUBLIC "-//W3C//DTD SVG 20010904//EN"
 "http://www.w3.org/TR/2001/REC-SVG-20010904/DTD/svg10.dtd">
<svg version="1.0" xmlns="http://www.w3.org/2000/svg"
 width="90.000000pt" height="90.000000pt" viewBox="0 0 90.000000 90.000000"
 preserveAspectRatio="xMidYMid meet">

<g transform="translate(0.000000,90.000000) scale(0.100000,-0.100000)"
fill="#000000" stroke="none">
<path d="M355 796 c-107 -34 -186 -102 -232 -201 -24 -51 -28 -73 -28 -145 0
-72 4 -94 28 -146 130 -282 522 -281 654 1 24 51 28 73 28 145 0 72 -4 94 -28
145 -30 65 -81 124 -138 160 -78 50 -199 68 -284 41z m148 -158 c45 -32 47
-36 47 -104 0 -57 -18 -116 -41 -129 -13 -9 -11 -51 4 -63 7 -6 34 -19 61 -29
59 -22 96 -64 77 -87 -7 -9 -38 -28 -70 -43 -80 -40 -182 -40 -262 0 -32 15
-63 34 -70 43 -19 23 18 65 77 87 27 10 54 23 61 29 15 12 17 54 4 63 -39 24
-56 169 -25 213 32 46 89 53 137 20z"/>
</g>
</svg>
