<svg width="1440" height="470" viewBox="0 0 1440 470" fill="none" xmlns="http://www.w3.org/2000/svg">
<mask id="mask0_66_1254" style="mask-type:luminance" maskUnits="userSpaceOnUse" x="0" y="0" width="1440" height="470">
<path d="M0 0H1440V470H0V0Z" fill="white"/>
</mask>
<g mask="url(#mask0_66_1254)">
<path fill-rule="evenodd" clip-rule="evenodd" d="M971.49 0.0888672V71.275H965.52L959.52 135.368H953.535V199.442H947.55V405.943H905.625V377.461H881.67V327.627H833.745V370.35H827.76V391.702H803.805V306.257H791.82V284.905H755.895V128.238H707.97V149.608H696V206.572H684.015V142.479H642.09V185.201H636.105V242.165H630.12V284.905H606.165V235.053H600.165V213.683H582.195V170.961H546.27V99.7745H540.27V170.961H504.345V227.924H456.42V256.405H438.465V220.812H366.585V263.535H348.615V277.776H342.63V313.386H324.66V220.812H306.69V170.961L294.72 162.42V78.4043H288.72V158.149L276.75 149.608V185.201L252.795 199.442V277.776H246.81V327.627H228.84V284.905L216.855 227.924L204.885 284.905V299.146H180.915V370.35H162.96V227.942L156.96 227.924H109.05L103.065 227.942V341.868H73.1101V313.386H67.1251V270.646H19.2151V306.257H1.24506V470.035H1438.67V256.405H1372.79V334.739H1324.88V306.257H1282.95V263.535H1259V185.201L1187.12 199.442V306.257H1121.24V320.498H1109.25V270.646H1055.36V363.22H1037.39V334.739H1001.45V199.442H995.46V135.368H989.475L983.475 71.275H977.49V0.0888672H971.49Z" fill="black" fill-opacity="0.5"/>
</g>
</svg>
