<svg width="81" height="80" viewBox="0 0 81 80" fill="none" xmlns="http://www.w3.org/2000/svg">
<g id="Group 2">
<g id="Group 1">
<path id="Vector" d="M61.8335 16.8557C61.6467 16.7411 61.4426 16.6765 61.2214 16.664C61.0002 16.6515 60.7897 16.6911 60.59 16.7849L43.0814 24.8661L25.5706 16.7849C25.474 16.739 25.3709 16.7057 25.2635 16.6849C25.1561 16.6661 25.0487 16.6578 24.9392 16.664C24.8318 16.6703 24.7244 16.689 24.6213 16.7224C24.5182 16.7536 24.4194 16.7995 24.3271 16.8557C24.2347 16.912 24.151 16.9786 24.0779 17.0536C24.0028 17.1307 23.9383 17.2161 23.8868 17.3078C23.8331 17.4015 23.7944 17.4974 23.7665 17.5995C23.7386 17.7015 23.7257 17.8057 23.7257 17.912V29.162C23.7257 29.4036 23.7923 29.6245 23.9255 29.8286C24.0586 30.0328 24.2369 30.187 24.4602 30.2911L42.5251 38.6286C42.8945 38.7974 43.2661 38.7974 43.6355 38.6286L61.7004 30.2911C61.9237 30.187 62.1041 30.0328 62.2351 29.8286C62.3683 29.6245 62.4349 29.4036 62.4349 29.162V17.912C62.4349 17.6974 62.3812 17.4953 62.2738 17.3078C62.1686 17.1203 62.0204 16.9703 61.8335 16.8557Z" fill="#376CFB"/>
<path id="Vector_2" d="M78.5176 31.9162C78.204 31.612 77.8625 31.3412 77.4931 31.1037C77.1237 30.8641 76.7328 30.662 76.3226 30.4995C75.9124 30.335 75.4893 30.21 75.0554 30.1266C74.6194 30.0433 74.1791 30.0016 73.7345 30.0016C73.2921 30.0016 72.8518 30.0433 72.4158 30.1266C71.9798 30.21 71.5567 30.335 71.1465 30.4995C70.7363 30.662 70.3475 30.8641 69.9781 31.1037C69.6087 31.3412 69.2672 31.612 68.9515 31.9162L54.1555 46.2495C53.9042 45.6933 53.5756 45.1829 53.1718 44.7183C52.7659 44.2537 52.302 43.8537 51.7758 43.5204C51.2517 43.187 50.6869 42.9329 50.0855 42.76C49.4841 42.585 48.8699 42.4975 48.2427 42.4975H24.3531C23.1547 42.4933 22.0013 42.7141 20.8931 43.1579C19.787 43.6037 18.8097 44.237 17.9656 45.06L9.90938 52.8641C9.7891 52.9808 9.69675 53.1162 9.63017 53.2683C9.56574 53.4225 9.53137 53.5808 9.53137 53.7475C9.53137 53.9141 9.56574 54.0725 9.63017 54.2266C9.69675 54.3787 9.7891 54.5141 9.90938 54.6308L26.6856 70.8808C26.8059 70.9975 26.9455 71.0891 27.1022 71.1516C27.2612 71.2162 27.4266 71.2475 27.5962 71.2475C27.7681 71.2475 27.9334 71.2162 28.0902 71.1516C28.2492 71.0891 28.3888 70.9975 28.509 70.8808L33.2921 66.2475H47.8368C48.5992 66.2495 49.3552 66.1787 50.1048 66.035C50.8522 65.8933 51.5782 65.6787 52.2826 65.3975C52.9893 65.1141 53.6572 64.7662 54.2908 64.3558C54.9244 63.9433 55.5107 63.4766 56.0477 62.9516L78.5176 41.185C78.8333 40.8808 79.1125 40.5495 79.3595 40.1912C79.6065 39.835 79.8149 39.4558 79.9845 39.0579C80.1542 38.662 80.2831 38.2516 80.369 37.8287C80.457 37.4079 80.5 36.9808 80.5 36.5516C80.5 36.1204 80.457 35.6954 80.369 35.2725C80.2831 34.8495 80.1542 34.4412 79.9845 34.0433C79.8149 33.6454 79.6065 33.2683 79.3595 32.91C79.1125 32.5516 78.8333 32.2225 78.5176 31.9162Z" fill="#FFDEDE"/>
<g id="Clip path group">
<mask id="mask0_15_271" style="mask-type:luminance" maskUnits="userSpaceOnUse" x="14" y="0" width="58" height="28">
<g id="99b72cf718">
<path id="Vector_3" d="M14.5204 0.00163269H71.7025V27.8745H14.5204V0.00163269Z" fill="white"/>
</g>
</mask>
<g mask="url(#mask0_15_271)">
<g id="Group">
<path id="Vector_4" d="M70.7317 12.62L43.6355 0.119992C43.2661 -0.0508413 42.8966 -0.0508413 42.5272 0.119992L15.4289 12.62C15.2055 12.7242 15.0272 12.8783 14.8941 13.0825C14.7609 13.2846 14.6943 13.5075 14.6943 13.7492C14.6943 13.9908 14.7609 14.2117 14.8941 14.4158C15.0272 14.62 15.2055 14.7742 15.4289 14.8783L42.5272 27.3783C42.8966 27.5492 43.2661 27.5492 43.6355 27.3783L70.7317 14.8783C70.9572 14.7742 71.1355 14.62 71.2686 14.4158C71.4018 14.2117 71.4684 13.9908 71.4684 13.7492C71.4684 13.5075 71.4018 13.2846 71.2686 13.0825C71.1355 12.8783 70.9572 12.7242 70.7317 12.62Z" fill="#7FB069"/>
</g>
</g>
</g>
<path id="Vector_5" d="M14.6949 33.7516C14.523 33.7516 14.3577 33.7204 14.2009 33.6558C14.0419 33.5933 13.9023 33.5016 13.7821 33.385C13.6596 33.2683 13.5673 33.1329 13.5007 32.9808C13.4363 32.8266 13.4041 32.6683 13.4041 32.5016V13.7516C13.4041 13.585 13.4363 13.4266 13.5007 13.2725C13.5673 13.1204 13.6596 12.985 13.7821 12.8683C13.9023 12.7495 14.0419 12.66 14.2009 12.5975C14.3577 12.5329 14.523 12.5016 14.6949 12.5016H41.7911C41.9607 12.5016 42.1261 12.5329 42.2851 12.5975C42.4418 12.66 42.5814 12.7495 42.7039 12.8683C42.8241 12.985 42.9165 13.1204 42.9831 13.2725C43.0475 13.4266 43.0819 13.585 43.0819 13.7516C43.0819 13.9183 43.0475 14.0766 42.9831 14.2308C42.9165 14.3829 42.8241 14.5183 42.7039 14.635C42.5814 14.7516 42.4418 14.8433 42.2851 14.9058C42.1261 14.9704 41.9607 15.0016 41.7911 15.0016H15.9835V32.5016C15.9835 32.6683 15.9513 32.8266 15.8869 32.9808C15.8203 33.1329 15.7279 33.2683 15.6055 33.385C15.4852 33.5016 15.3456 33.5933 15.1867 33.6558C15.0299 33.7204 14.8645 33.7516 14.6949 33.7516Z" fill="#376CFB"/>
<path id="Vector_6" d="M18.565 35.0016C18.565 35.2475 18.5392 35.4912 18.4898 35.7329C18.4404 35.9745 18.3674 36.21 18.2707 36.437C18.1719 36.6641 18.0538 36.8808 17.912 37.085C17.7703 37.2891 17.6114 37.4787 17.4309 37.6537C17.2505 37.8266 17.0551 37.9829 16.8446 38.1204C16.632 38.2558 16.4108 38.3725 16.1745 38.4662C15.9404 38.56 15.6977 38.6308 15.4486 38.6787C15.1994 38.7266 14.9481 38.7516 14.6947 38.7516C14.4391 38.7516 14.1878 38.7266 13.9387 38.6787C13.6895 38.6308 13.4468 38.56 13.2127 38.4662C12.9765 38.3725 12.7553 38.2558 12.5426 38.1204C12.3321 37.9829 12.1367 37.8266 11.9563 37.6537C11.7759 37.4787 11.6169 37.2891 11.4752 37.085C11.3334 36.8808 11.2153 36.6641 11.1165 36.437C11.0199 36.21 10.9468 35.9745 10.8974 35.7329C10.848 35.4912 10.8223 35.2475 10.8223 35.0016C10.8223 34.7558 10.848 34.512 10.8974 34.2704C10.9468 34.0287 11.0199 33.7933 11.1165 33.5662C11.2153 33.3391 11.3334 33.1225 11.4752 32.9183C11.6169 32.7141 11.7759 32.5245 11.9563 32.3495C12.1367 32.1766 12.3321 32.0204 12.5426 31.8829C12.7553 31.7475 12.9765 31.6308 13.2127 31.537C13.4468 31.4433 13.6895 31.3725 13.9387 31.3245C14.1878 31.2745 14.4391 31.2516 14.6947 31.2516C14.9481 31.2516 15.1994 31.2745 15.4486 31.3245C15.6977 31.3725 15.9404 31.4433 16.1745 31.537C16.4108 31.6308 16.632 31.7475 16.8446 31.8829C17.0551 32.0204 17.2505 32.1766 17.4309 32.3495C17.6114 32.5245 17.7703 32.7141 17.912 32.9183C18.0538 33.1225 18.1719 33.3391 18.2707 33.5662C18.3674 33.7933 18.4404 34.0287 18.4898 34.2704C18.5392 34.512 18.565 34.7558 18.565 35.0016Z" fill="#7FB069"/>
<path id="Vector_7" d="M57.274 48.7489C57.274 49.0343 57.259 49.3218 57.2289 49.6051C57.201 49.8906 57.1559 50.1739 57.0979 50.4551C57.0421 50.7364 56.9691 51.0135 56.8831 51.2885C56.7972 51.5614 56.6963 51.8301 56.5846 52.0968C56.4708 52.3614 56.3441 52.6197 56.2044 52.8718C56.0648 53.1239 55.9124 53.3697 55.7491 53.6072C55.5837 53.8468 55.4076 54.076 55.2208 54.2968C55.0339 54.5176 54.8342 54.7301 54.6258 54.9322C54.4175 55.1364 54.1984 55.3281 53.9686 55.5093C53.741 55.6906 53.5026 55.8614 53.2577 56.0218C53.0107 56.1801 52.7594 56.3281 52.4974 56.4635C52.2375 56.5989 51.9691 56.7197 51.6963 56.8301C51.4235 56.9406 51.1465 57.0364 50.863 57.1197C50.5794 57.2031 50.2938 57.2739 50.0038 57.3281C49.7139 57.3843 49.4218 57.4281 49.1276 57.4551C48.8333 57.4843 48.5369 57.4989 48.2427 57.4989H32.7573C32.5876 57.4989 32.4222 57.4676 32.2633 57.4031C32.1065 57.3406 31.9669 57.2489 31.8466 57.1322C31.7242 57.0156 31.6319 56.8801 31.5653 56.7281C31.5008 56.5739 31.4686 56.4156 31.4686 56.2489C31.4686 56.0822 31.5008 55.9239 31.5653 55.7697C31.6319 55.6176 31.7242 55.4822 31.8466 55.3656C31.9669 55.2468 32.1065 55.1572 32.2633 55.0947C32.4222 55.0301 32.5876 54.9989 32.7573 54.9989H48.2427C48.6658 54.9989 49.0846 54.9593 49.5013 54.8781C49.9158 54.7989 50.3196 54.6801 50.7105 54.5218C51.1014 54.3656 51.4729 54.1718 51.8252 53.9447C52.1774 53.7176 52.5038 53.4572 52.8024 53.1676C53.1031 52.8781 53.3694 52.5614 53.6056 52.2197C53.8419 51.8801 54.0395 51.5197 54.2027 51.1406C54.3638 50.7614 54.4862 50.3697 54.57 49.9676C54.6516 49.5656 54.6924 49.1593 54.6946 48.7489C54.6946 47.8781 54.5142 47.0447 54.1512 46.2489L56.0734 44.3864C56.8745 45.7364 57.2762 47.1906 57.274 48.7489Z" fill="#EFC2C2"/>
<g id="Clip path group_2">
<mask id="mask1_15_271" style="mask-type:luminance" maskUnits="userSpaceOnUse" x="0" y="49" width="32" height="31">
<g id="9f4e499bd5">
<path id="Vector_8" d="M0.5 49.738H31.5653V79.9984H0.5V49.738Z" fill="white"/>
</g>
</mask>
<g mask="url(#mask1_15_271)">
<g id="Group_2">
<path id="Vector_9" d="M31.0906 71.6183L9.15335 50.3683C9.03307 50.2495 8.89347 50.16 8.73668 50.0975C8.57775 50.0329 8.41237 50.0016 8.2427 50.0016C8.07087 50.0016 7.9055 50.0329 7.74871 50.0975C7.58977 50.16 7.45017 50.2495 7.3299 50.3683L0.878007 56.6183C0.757732 56.735 0.66323 56.8704 0.598797 57.0225C0.532216 57.1766 0.5 57.335 0.5 57.5016C0.5 57.6683 0.532216 57.8266 0.598797 57.9808C0.66323 58.1329 0.757732 58.2683 0.878007 58.385L22.8131 79.635C22.9334 79.7516 23.073 79.8433 23.232 79.9058C23.3909 79.9704 23.5541 80.0016 23.7259 80.0016C23.8978 80.0016 24.061 79.9704 24.2199 79.9058C24.3767 79.8433 24.5163 79.7516 24.6387 79.635L31.0906 73.385C31.2109 73.2683 31.3033 73.1329 31.3698 72.9808C31.4343 72.8266 31.4686 72.6683 31.4686 72.5016C31.4686 72.335 31.4343 72.1766 31.3698 72.0225C31.3033 71.8704 31.2109 71.735 31.0906 71.6183Z" fill="#7FB069"/>
</g>
</g>
</g>
</g>
</g>
</svg>
