<svg width="81" height="80" viewBox="0 0 81 80" fill="none" xmlns="http://www.w3.org/2000/svg">
<g id="Group 4">
<path id="Vector" d="M14.6937 1.2896V14.1938H1.78958L14.6937 1.2896Z" fill="#0077B6"/>
<path id="Vector_2" d="M14.6937 1.2896V14.1938H1.78958V78.7104H58.5646V1.2896H14.6937Z" fill="#E6E9ED"/>
<path id="Vector_3" d="M79.2104 32.2583L72.7583 38.7104L65.0167 30.9687L71.4687 24.5166C75.7375 24.5166 79.2104 27.9896 79.2104 32.2583Z" fill="#E6E9ED"/>
<path id="Vector_4" d="M40.5 70.9688L31.4688 72.2583L32.7583 63.225L40.5 70.9688Z" fill="#A7895E"/>
<path id="Vector_5" d="M72.7583 38.7104L68.8875 42.5812L61.1458 34.8396L65.0166 30.9688L72.7583 38.7104Z" fill="#A7895E"/>
<path id="Vector_6" d="M68.8875 42.5812L40.5 70.9687L36.6292 67.0958L65.0167 38.7104L68.8875 42.5812Z" fill="#0077B6"/>
<path id="Vector_7" d="M58.5646 37.4188L61.1458 34.8396L65.0167 38.7104L36.6292 67.0958L32.7583 63.225L58.5646 37.4188Z" fill="#7FB069"/>
<path id="Vector_8" d="M50.8229 6.4521C52.2438 6.4521 53.4042 7.61044 53.4042 9.03127C53.4042 10.4542 52.2438 11.6125 50.8229 11.6125C49.4021 11.6125 48.2417 10.4542 48.2417 9.03127C48.2417 7.61044 49.4021 6.4521 50.8229 6.4521Z" fill="#A7895E"/>
<path id="Vector_9" d="M40.5 6.4521C41.9208 6.4521 43.0812 7.61044 43.0812 9.03127C43.0812 10.4542 41.9208 11.6125 40.5 11.6125C39.0791 11.6125 37.9187 10.4542 37.9187 9.03127C37.9187 7.61044 39.0791 6.4521 40.5 6.4521Z" fill="#A7895E"/>
<path id="Vector_10" d="M30.1771 6.4521C31.5979 6.4521 32.7583 7.61044 32.7583 9.03127C32.7583 10.4542 31.5979 11.6125 30.1771 11.6125C28.7562 11.6125 27.5958 10.4542 27.5958 9.03127C27.5958 7.61044 28.7562 6.4521 30.1771 6.4521Z" fill="#A7895E"/>
<path id="Vector_11" d="M35.3396 27.0959V52.9042H6.95206V27.0959H35.3396Z" fill="#A7895E"/>
<g id="Clip path group">
<mask id="mask0_15_160" style="mask-type:luminance" maskUnits="userSpaceOnUse" x="0" y="0" width="81" height="80">
<g id="45bbd537ba">
<path id="Vector_12" d="M0.5 0H80.5V80H0.5V0Z" fill="white"/>
</g>
</mask>
<g mask="url(#mask0_15_160)">
<g id="Group">
<path id="Vector_13" d="M72.7583 36.8854L66.8417 30.9688L71.9813 25.8271C75.1313 26.0792 77.6479 28.5938 77.9 31.7438L72.7583 36.8854ZM57.275 77.4188H3.08125V15.4833H15.9833V2.58125H57.275V36.8854L31.5438 62.6167L29.9458 73.7813L41.1104 72.1833L57.275 56.0188V77.4188ZM13.4042 4.40625V12.9042H4.90625L13.4042 4.40625ZM62.9688 34.8396L65.0167 32.7917L70.9333 38.7104L68.8875 40.7563L62.9688 34.8396ZM40.5 69.1438L38.4542 67.0958L65.0167 40.5333L67.0625 42.5813L40.5 69.1438ZM33.6708 65.9625L37.7625 70.0563L32.9896 70.7354L33.6708 65.9625ZM34.5833 63.225L61.1458 36.6625L63.1917 38.7104L36.6292 65.2729L34.5833 63.225ZM80.5 32.2583C80.5 27.2792 76.4479 23.225 71.4688 23.225H70.9333L59.8542 34.3042V0H14.1583L0.5 13.6583V80H59.8542V53.4375L80.5 32.7917V32.2583Z" fill="#1E1713"/>
</g>
</g>
</g>
<path id="Vector_14" d="M50.8229 7.74165C51.5333 7.74165 52.1125 8.32082 52.1125 9.03123C52.1125 9.74373 51.5333 10.3229 50.8229 10.3229C50.1125 10.3229 49.5312 9.74373 49.5312 9.03123C49.5312 8.32082 50.1125 7.74165 50.8229 7.74165ZM50.8229 12.9042C52.9604 12.9042 54.6937 11.1687 54.6937 9.03123C54.6937 6.89582 52.9604 5.1604 50.8229 5.1604C48.6854 5.1604 46.9521 6.89582 46.9521 9.03123C46.9521 11.1687 48.6854 12.9042 50.8229 12.9042Z" fill="#1E1713"/>
<path id="Vector_15" d="M40.5 7.74165C41.2104 7.74165 41.7896 8.32082 41.7896 9.03123C41.7896 9.74373 41.2104 10.3229 40.5 10.3229C39.7896 10.3229 39.2104 9.74373 39.2104 9.03123C39.2104 8.32082 39.7896 7.74165 40.5 7.74165ZM40.5 12.9042C42.6375 12.9042 44.3708 11.1687 44.3708 9.03123C44.3708 6.89582 42.6375 5.1604 40.5 5.1604C38.3625 5.1604 36.6292 6.89582 36.6292 9.03123C36.6292 11.1687 38.3625 12.9042 40.5 12.9042Z" fill="#1E1713"/>
<path id="Vector_16" d="M30.1771 7.74165C30.8875 7.74165 31.4687 8.32082 31.4687 9.03123C31.4687 9.74373 30.8875 10.3229 30.1771 10.3229C29.4667 10.3229 28.8875 9.74373 28.8875 9.03123C28.8875 8.32082 29.4667 7.74165 30.1771 7.74165ZM30.1771 12.9042C32.3146 12.9042 34.0479 11.1687 34.0479 9.03123C34.0479 6.89582 32.3146 5.1604 30.1771 5.1604C28.0396 5.1604 26.3062 6.89582 26.3062 9.03123C26.3062 11.1687 28.0396 12.9042 30.1771 12.9042Z" fill="#1E1713"/>
<path id="Vector_17" d="M54.6937 15.4834H21.1458V18.0646H54.6937V15.4834Z" fill="#1E1713"/>
<path id="Vector_18" d="M54.6937 20.6458H5.6604V23.225H54.6937V20.6458Z" fill="#1E1713"/>
<path id="Vector_19" d="M5.6604 74.8396H27.5958V72.2583H5.6604V74.8396Z" fill="#1E1713"/>
<path id="Vector_20" d="M25.0167 69.6771H27.5958V67.0958H25.0167V69.6771Z" fill="#1E1713"/>
<path id="Vector_21" d="M22.4354 67.0958H5.6604V69.6771H22.4354V67.0958Z" fill="#1E1713"/>
<path id="Vector_22" d="M5.6604 64.5166H27.5958V61.9354H5.6604V64.5166Z" fill="#1E1713"/>
<path id="Vector_23" d="M5.6604 59.3542H27.5958V56.775H5.6604V59.3542Z" fill="#1E1713"/>
<path id="Vector_24" d="M34.0479 51.6125H8.24165V28.3875H34.0479V51.6125ZM36.6292 25.8062H5.6604V54.1937H36.6292V25.8062Z" fill="#1E1713"/>
<path id="Vector_25" d="M39.2104 28.3875H54.6938V25.8062H39.2104V28.3875Z" fill="#1E1713"/>
<path id="Vector_26" d="M39.2104 33.5479H54.6938V30.9688H39.2104V33.5479Z" fill="#1E1713"/>
<path id="Vector_27" d="M39.2104 38.7104H54.6938V36.1292H39.2104V38.7104Z" fill="#1E1713"/>
<path id="Vector_28" d="M13.4042 43.8708H10.8229V46.4521H13.4042V43.8708Z" fill="#1E1713"/>
<path id="Vector_29" d="M13.4042 33.5479H18.5646V30.9688H10.8229V41.2896H13.4042V33.5479Z" fill="#1E1713"/>
<path id="Vector_30" d="M54.6937 63.225H52.1125V72.2583H49.5312V74.8396H54.6937V63.225Z" fill="#1E1713"/>
<path id="Vector_31" d="M46.9521 72.2583H44.3708V74.8396H46.9521V72.2583Z" fill="#1E1713"/>
</g>
</svg>
