<svg width="81" height="80" viewBox="0 0 81 80" fill="none" xmlns="http://www.w3.org/2000/svg">
<g id="Group 5">
<g id="Group 3">
<g id="Clip path group">
<mask id="mask0_15_205" style="mask-type:luminance" maskUnits="userSpaceOnUse" x="25" y="18" width="56" height="60">
<g id="f879bfbf54">
<path id="Vector" d="M25.2273 18.9333H80.5V77.0667H25.2273V18.9333Z" fill="white"/>
</g>
</mask>
<g mask="url(#mask0_15_205)">
<g id="Group">
<path id="Vector_2" d="M57.298 77.0333H25.7778V75.4813H57.298V77.0333ZM26.2045 59.4854C26.2045 59.4854 34.404 72.4521 57.298 68.9292C62.6061 68.1125 67.3535 65.6625 71.1439 62.5542C74.702 59.6354 78.4091 55.6167 79.6692 51.5375C80.4747 48.9271 80.2752 46.1958 79.9091 43.5458C79.4091 39.9479 78.2096 36.3458 75.8788 33.25C74.4773 31.3708 72.697 29.7792 70.5353 28.4771L51.9167 19.4563L53.2222 21.0313L56.2071 24.6292L59.4798 28.5792C60.2626 29.5375 61.1162 30.4521 62.0404 31.3208C62.9949 32.2042 64.1035 32.9563 65.0909 33.8125C66.0076 34.6021 66.8182 35.4625 67.5202 36.3896C68.6641 37.9167 69.4318 39.7 69.1717 41.5146C68.4015 46.8708 64.9848 54.975 57.8106 57.1583C50.6364 59.3438 25.7778 58.0042 25.7778 58.0042L26.2045 59.4854Z" fill="#A7895E"/>
</g>
</g>
</g>
<path id="Vector_3" d="M23.8434 41.4896L25.702 42.3729C25.7878 42.4146 25.8611 42.4667 25.9217 42.5333C25.9823 42.5979 26.0252 42.6708 26.053 42.75C26.0782 42.8292 26.0833 42.9104 26.0707 42.9917C26.058 43.0729 26.0277 43.15 25.9772 43.2208L23.7348 46.425C23.6843 46.4958 23.6212 46.5563 23.5404 46.6063C23.4621 46.6563 23.3737 46.6917 23.2777 46.7125C23.1818 46.7354 23.0833 46.7396 22.9848 46.7292C22.8863 46.7188 22.7929 46.6917 22.707 46.6521L20.851 45.7667C20.7626 45.725 20.6893 45.6729 20.6287 45.6063C20.5681 45.5417 20.5252 45.4688 20.5 45.3896C20.4747 45.3104 20.4671 45.2292 20.4798 45.1479C20.4924 45.0667 20.5252 44.9896 20.5757 44.9188L22.8156 41.7167C22.8661 41.6438 22.9318 41.5833 23.0101 41.5333C23.0883 41.4833 23.1767 41.4479 23.2727 41.4271C23.3686 41.4063 23.4671 41.4 23.5656 41.4104C23.6641 41.4208 23.7575 41.4479 23.8434 41.4896Z" fill="#83A0B0"/>
<path id="Vector_4" d="M28.2096 43.5L30.2576 44.475C30.3939 44.5417 30.4849 44.6354 30.5253 44.7625C30.5657 44.8875 30.5455 45.0063 30.4672 45.1188L29.0884 47.0896C29.0101 47.2021 28.8939 47.2771 28.7424 47.3104C28.5884 47.3438 28.4445 47.3271 28.3081 47.2625L26.2576 46.2875C26.1212 46.2208 26.0328 46.1271 25.9924 46C25.952 45.875 25.9697 45.7563 26.0505 45.6438L27.4293 43.6729C27.5076 43.5604 27.6237 43.4875 27.7753 43.4521C27.9268 43.4188 28.0732 43.4354 28.2096 43.5Z" fill="#9DC0D4"/>
<path id="Vector_5" d="M41.8914 9.28334L54.8889 15.475C55.0985 15.575 55.2753 15.7021 55.4217 15.8604C55.5682 16.0167 55.6717 16.1917 55.7349 16.3833C55.7955 16.575 55.8131 16.7708 55.7803 16.9667C55.75 17.1625 55.6743 17.3479 55.553 17.5188L36.1894 45.1896C36.0682 45.3625 35.9142 45.5083 35.7222 45.6292C35.5303 45.75 35.3207 45.8354 35.0884 45.8875C34.8561 45.9396 34.6187 45.9521 34.3813 45.925C34.1414 45.9 33.9192 45.8375 33.7121 45.7375L20.7121 39.5458C20.5025 39.4479 20.3258 39.3188 20.1793 39.1604C20.0328 39.0042 19.9293 38.8292 19.8662 38.6375C19.8056 38.4458 19.7879 38.2521 19.8207 38.0542C19.851 37.8583 19.9268 37.6729 20.048 37.5021L39.4116 9.83126C39.5328 9.66043 39.6869 9.51251 39.8788 9.39168C40.0707 9.27084 40.2803 9.18543 40.5126 9.13334C40.745 9.08334 40.9823 9.07084 41.2197 9.09584C41.4596 9.12084 41.6818 9.18543 41.8914 9.28334Z" fill="#0077B6"/>
<path id="Vector_6" d="M21.6263 39.7604L33.0278 45.1917C33.1061 45.2292 33.1566 45.2854 33.1818 45.3562C33.2046 45.4292 33.1945 45.4979 33.149 45.5625L32.7652 46.1104C32.7197 46.175 32.6515 46.2167 32.5657 46.2375C32.4773 46.2562 32.3939 46.2479 32.3157 46.2104L20.9142 40.7792C20.8359 40.7417 20.7828 40.6854 20.7601 40.6146C20.7374 40.5417 20.7475 40.4729 20.7929 40.4083L21.1768 39.8604C21.2222 39.7958 21.2879 39.7542 21.3763 39.7333C21.4647 39.7146 21.548 39.7229 21.6263 39.7604Z" fill="#A7895E"/>
<path id="Vector_7" d="M12.7399 55.2396C11.5101 55.2438 10.2904 55.1479 9.08335 54.9542C7.21971 54.6479 5.87375 54.0896 4.96466 53.25C4.92678 53.2146 4.88638 53.175 4.84597 53.1354C4.78789 53.0792 4.74496 53.0146 4.71719 52.9438C4.68941 52.8729 4.67931 52.8021 4.68688 52.7271C4.69446 52.6542 4.71971 52.5833 4.76264 52.5188C4.80304 52.4521 4.8586 52.3958 4.92931 52.35C4.99749 52.3021 5.07577 52.2688 5.16163 52.2458C5.24749 52.225 5.33587 52.2188 5.42426 52.2271C5.51517 52.2333 5.5985 52.2563 5.67678 52.2917C5.75507 52.3271 5.82325 52.375 5.8788 52.4333C5.90658 52.4604 5.93436 52.4875 5.96214 52.5146C6.67173 53.1708 7.77779 53.6146 9.34597 53.8708C11.9369 54.2583 14.5177 54.2229 17.0909 53.7667C18.0859 53.5792 19.0631 53.3375 20.0177 53.0375C20.5404 52.8854 21.0808 52.7292 21.6288 52.5896C22.6162 52.3375 23.5379 52.1292 24.4445 51.9479C25.9975 51.6292 27.5732 51.4125 29.1692 51.2938C30.3864 51.2021 31.601 51.2083 32.8157 51.3125C33.7424 51.3938 34.644 51.5604 35.5227 51.8146C36.1919 52.0104 36.8207 52.2729 37.4091 52.6021C37.846 52.8479 38.2399 53.1354 38.5909 53.4625C38.8258 53.6813 39.0278 53.9167 39.202 54.1708C39.2727 54.2729 39.3333 54.3792 39.3864 54.4896C39.4192 54.5583 39.4318 54.6292 39.4293 54.7021C39.4268 54.7771 39.4091 54.8458 39.3712 54.9125C39.3359 54.9792 39.2854 55.0375 39.2222 55.0896C39.1566 55.1396 39.0833 55.1771 39 55.2042C38.9167 55.2292 38.8308 55.2417 38.7424 55.2396C38.6541 55.2375 38.5682 55.2208 38.4874 55.1917C38.4066 55.1625 38.3359 55.1208 38.2753 55.0667C38.2147 55.0146 38.1667 54.9521 38.1364 54.8854C38.1061 54.8229 38.0707 54.7646 38.0328 54.7063C37.9041 54.5229 37.7551 54.35 37.5833 54.1917C37.3056 53.9333 36.995 53.7083 36.649 53.5125C36.1541 53.2375 35.6263 53.0188 35.0657 52.8542C34.2879 52.6292 33.4874 52.4833 32.6642 52.4125C31.5379 52.3146 30.4091 52.3104 29.2803 52.3958C27.7525 52.5083 26.245 52.7167 24.7551 53.0208C23.8763 53.1958 22.9823 53.4 22.0227 53.6438C21.5 53.7771 20.9722 53.9313 20.4621 54.0792C19.4495 54.3958 18.4116 54.6521 17.3535 54.8479C15.8308 55.1042 14.2929 55.2354 12.7399 55.2396ZM57.3005 75.4833C40.9546 65.9208 25.7803 75.4833 25.7803 75.4833H57.3005ZM61.6995 26.9333C61.6995 27.3604 61.649 27.7813 61.548 28.2C61.447 28.6167 61.298 29.0229 61.101 29.4167C60.9041 29.8104 60.6616 30.1854 60.3738 30.5396C60.0859 30.8938 59.7601 31.2208 59.3965 31.5229C59.0303 31.8229 58.6339 32.0917 58.2046 32.3292C57.7727 32.5667 57.3207 32.7667 56.8434 32.9292C56.3662 33.0917 55.8738 33.2146 55.3687 33.2979C54.8611 33.3813 54.3485 33.4229 53.8334 33.4229C53.3157 33.4229 52.8056 33.3813 52.298 33.2979C51.7929 33.2146 51.3005 33.0917 50.8232 32.9292C50.346 32.7667 49.8914 32.5667 49.4621 32.3292C49.0328 32.0917 48.6364 31.8229 48.2702 31.5229C47.9066 31.2208 47.5783 30.8938 47.2929 30.5396C47.0051 30.1854 46.7626 29.8104 46.5657 29.4167C46.3687 29.0229 46.2197 28.6167 46.1187 28.2C46.0177 27.7813 45.9672 27.3604 45.9672 26.9333C45.9672 26.5063 46.0177 26.0854 46.1187 25.6667C46.2197 25.25 46.3687 24.8438 46.5657 24.45C46.7626 24.0563 47.0051 23.6813 47.2929 23.3271C47.5783 22.9729 47.9066 22.6458 48.2702 22.3438C48.6364 22.0438 49.0328 21.775 49.4621 21.5375C49.8914 21.3 50.346 21.1 50.8232 20.9375C51.3005 20.775 51.7929 20.6521 52.298 20.5688C52.8056 20.4854 53.3157 20.4438 53.8334 20.4438C54.3485 20.4438 54.8611 20.4854 55.3687 20.5688C55.8738 20.6521 56.3662 20.775 56.8434 20.9375C57.3207 21.1021 57.7727 21.3021 58.202 21.5375C58.6313 21.775 59.0303 22.0438 59.394 22.3458C59.7601 22.6458 60.0859 22.975 60.3712 23.3292C60.6591 23.6833 60.9015 24.0563 61.0985 24.45C61.298 24.8438 61.447 25.25 61.5455 25.6667C61.6465 26.0854 61.697 26.5063 61.697 26.9333H61.6995Z" fill="#83A0B0"/>
<path id="Vector_8" d="M47.9243 3.73958L57.6919 8.39166C57.8485 8.46666 57.9798 8.56249 58.0884 8.67916C58.197 8.79583 58.2753 8.92708 58.3233 9.07083C58.3687 9.21249 58.3788 9.35833 58.3561 9.50416C58.3334 9.65208 58.2778 9.78958 58.1869 9.91666L55.1288 14.2875C55.0404 14.4146 54.9243 14.5229 54.7803 14.6146C54.6389 14.7042 54.4798 14.7687 54.3081 14.8062C54.1339 14.8437 53.9596 14.8542 53.7803 14.8354C53.6036 14.8146 53.4369 14.7687 53.2803 14.6958L43.5127 10.0417C43.3586 9.96874 43.2248 9.87291 43.1162 9.75416C43.0076 9.63749 42.9293 9.50833 42.8839 9.36458C42.8359 9.22083 42.8258 9.07708 42.8485 8.92916C42.8712 8.78333 42.9293 8.64583 43.0177 8.51874L46.0758 4.14791C46.1667 4.02083 46.2829 3.91041 46.4243 3.82083C46.5657 3.73124 46.7248 3.66666 46.8965 3.62916C47.0707 3.58958 47.245 3.58124 47.4243 3.59999C47.601 3.61874 47.7677 3.66458 47.9243 3.73958Z" fill="#A7895E"/>
<g id="Clip path group_2">
<mask id="mask1_15_205" style="mask-type:luminance" maskUnits="userSpaceOnUse" x="45" y="0" width="18" height="9">
<g id="e808dbc9fd">
<path id="Vector_9" d="M45.2677 0H62.0758V8.8H45.2677V0Z" fill="white"/>
</g>
</mask>
<g mask="url(#mask1_15_205)">
<g id="Group_2">
<path id="Vector_10" d="M46.9672 0.164603L61.6919 7.17919C61.7854 7.22294 61.8435 7.28752 61.8712 7.37085C61.899 7.45419 61.8864 7.53335 61.8334 7.60835L61.1692 8.55627C61.1162 8.63127 61.0404 8.67919 60.9394 8.7021C60.8359 8.72502 60.7399 8.7146 60.649 8.67085L45.9217 1.65627C45.8308 1.61252 45.7727 1.55002 45.745 1.4646C45.7172 1.38127 45.7298 1.3021 45.7828 1.2271L46.4445 0.279186C46.4975 0.204186 46.5758 0.15627 46.6768 0.133353C46.7778 0.110436 46.8738 0.120852 46.9672 0.164603Z" fill="#83A0B0"/>
</g>
</g>
</g>
<path id="Vector_11" d="M37.5808 61.8354H46.0934C46.2803 61.8354 46.4596 61.8646 46.6313 61.9229C46.8056 61.9812 46.9571 62.0667 47.0909 62.175C47.2222 62.2833 47.3232 62.4104 47.3965 62.5521C47.4672 62.6937 47.5025 62.8437 47.5025 62.9979V71.1479C47.5025 71.3021 47.4672 71.45 47.3965 71.5937C47.3232 71.7354 47.2222 71.8625 47.0909 71.9708C46.9571 72.0792 46.8056 72.1646 46.6313 72.2229C46.4596 72.2812 46.2803 72.3104 46.0934 72.3104H37.5808C37.3939 72.3104 37.2121 72.2812 37.0404 72.2229C36.8687 72.1646 36.7146 72.0792 36.5833 71.9708C36.452 71.8625 36.3485 71.7354 36.2778 71.5937C36.2071 71.45 36.1692 71.3021 36.1692 71.1479V62.9979C36.1692 62.8437 36.2071 62.6937 36.2778 62.5521C36.3485 62.4104 36.452 62.2833 36.5833 62.175C36.7146 62.0667 36.8687 61.9812 37.0404 61.9229C37.2121 61.8646 37.3939 61.8354 37.5808 61.8354Z" fill="#0077B6"/>
<g id="Clip path group_3">
<mask id="mask2_15_205" style="mask-type:luminance" maskUnits="userSpaceOnUse" x="19" y="2" width="46" height="78">
<g id="3634fef3fd">
<path id="Vector_12" d="M19.4091 2.39999H64.6616V80H19.4091V2.39999Z" fill="white"/>
</g>
</mask>
<g mask="url(#mask2_15_205)">
<g id="Group_3">
<path id="Vector_13" d="M64.3889 80.0167H19.4571V76.8208H64.3889V80.0167ZM45.793 68.6583V66.5437C45.793 66.2604 45.7273 65.9896 45.5935 65.7271C45.4621 65.4667 45.2753 65.2354 45.0329 65.0354C44.7904 64.8354 44.5101 64.6792 44.1945 64.5708C43.8763 64.4625 43.5455 64.4083 43.202 64.4062H40.6389C40.2955 64.4083 39.9672 64.4625 39.649 64.5708C39.3334 64.6792 39.0531 64.8333 38.8106 65.0354C38.5682 65.2354 38.3813 65.4667 38.2475 65.7271C38.1162 65.9896 38.0505 66.2604 38.048 66.5437V68.6583C38.0505 68.9417 38.1162 69.2146 38.2475 69.475C38.3813 69.7375 38.5682 69.9687 38.8106 70.1687C39.0531 70.3687 39.3334 70.5229 39.649 70.6312C39.9672 70.7396 40.2955 70.7958 40.6389 70.7958H43.202C43.5455 70.7958 43.8763 70.7417 44.1945 70.6312C44.5101 70.5229 44.7904 70.3687 45.0329 70.1687C45.2753 69.9687 45.4621 69.7375 45.596 69.475C45.7273 69.2146 45.793 68.9417 45.7955 68.6583H45.793ZM58.6364 26.7917C58.6364 27.0521 58.6061 27.3104 58.5429 27.5646C58.4823 27.8208 58.3914 28.0687 58.2702 28.3083C58.149 28.55 58.0025 28.7771 57.8258 28.9937C57.6515 29.2104 57.452 29.4104 57.2273 29.5937C57.0051 29.7792 56.7626 29.9437 56.5 30.0875C56.2374 30.2333 55.9621 30.3542 55.6692 30.4542C55.3788 30.5542 55.0783 30.6292 54.7677 30.6792C54.4596 30.7312 54.1465 30.7562 53.8308 30.7562C53.5152 30.7562 53.202 30.7312 52.894 30.6792C52.5834 30.6292 52.2828 30.5542 51.9924 30.4542C51.6995 30.3542 51.4243 30.2333 51.1616 30.0875C50.899 29.9437 50.6566 29.7792 50.4318 29.5937C50.2096 29.4104 50.0101 29.2104 49.8359 28.9937C49.6591 28.7771 49.5126 28.55 49.3914 28.3083C49.2702 28.0687 49.1793 27.8208 49.1187 27.5646C49.0556 27.3104 49.0253 27.0521 49.0253 26.7917C49.0253 26.5312 49.0556 26.2729 49.1187 26.0187C49.1793 25.7625 49.2702 25.5146 49.3914 25.275C49.5126 25.0333 49.6591 24.8062 49.8359 24.5896C50.0101 24.3729 50.2096 24.1729 50.4318 23.9875C50.6566 23.8042 50.899 23.6396 51.1616 23.4958C51.4243 23.35 51.6995 23.2292 51.9924 23.1292C52.2828 23.0292 52.5834 22.9542 52.894 22.9042C53.202 22.8521 53.5152 22.8271 53.8308 22.8271C54.1465 22.8271 54.4596 22.8521 54.7677 22.9042C55.0783 22.9542 55.3788 23.0292 55.6692 23.1292C55.9621 23.2292 56.2374 23.35 56.5 23.4958C56.7626 23.6396 57.0051 23.8042 57.2298 23.9875C57.452 24.1729 57.6515 24.3729 57.8258 24.5896C58.0025 24.8062 58.149 25.0333 58.2702 25.275C58.3914 25.5146 58.4823 25.7625 58.5429 26.0187C58.6061 26.2729 58.6364 26.5312 58.6364 26.7917ZM58.9344 8.40207C58.9773 8.33749 59.0051 8.26874 59.0177 8.1979C59.0278 8.12499 59.0227 8.05207 59 7.98124C58.9773 7.9104 58.9369 7.8479 58.8839 7.78957C58.8283 7.73124 58.7626 7.68332 58.6869 7.6479L47.9546 2.5729C47.8763 2.53749 47.7929 2.51457 47.7071 2.50624C47.6187 2.49582 47.5303 2.49999 47.4445 2.52082C47.3586 2.53957 47.2829 2.57082 47.2121 2.61665C47.1414 2.6604 47.0834 2.71457 47.0404 2.77915C46.995 2.84165 46.9672 2.9104 46.9571 2.98332C46.9445 3.05415 46.952 3.12707 46.9748 3.1979C46.9975 3.26874 47.0379 3.33332 47.0909 3.38957C47.1465 3.4479 47.2121 3.49582 47.2879 3.53124L58.0227 8.60624C58.0985 8.64165 58.1818 8.66457 58.2702 8.67499C58.3586 8.68332 58.4445 8.67915 58.5303 8.6604C58.6162 8.63957 58.6945 8.60832 58.7652 8.56457C58.8334 8.51874 58.8914 8.46457 58.9344 8.40207ZM34.0051 43.8375C33.9672 43.8375 33.9293 43.8292 33.894 43.8125L22.4495 38.3625C22.394 38.3375 22.3611 38.3 22.3435 38.25C22.3283 38.2021 22.3359 38.1542 22.3662 38.1104C22.3965 38.0667 22.4419 38.0375 22.5025 38.025C22.5606 38.0104 22.6187 38.0167 22.6717 38.0417L34.1187 43.4917C34.2172 43.5396 34.2525 43.6083 34.2222 43.7C34.1919 43.7896 34.1212 43.8354 34.0051 43.8354V43.8375ZM33.7854 41.7187C33.7475 41.7187 33.7096 41.7104 33.6743 41.6937L24.9748 37.55C24.9192 37.525 24.8813 37.4875 24.8637 37.4375C24.8485 37.3875 24.8536 37.3417 24.8864 37.2958C24.9167 37.25 24.9647 37.2229 25.0253 37.2104C25.0859 37.1979 25.144 37.2042 25.197 37.2312L33.899 41.375C33.9975 41.4208 34.0329 41.4917 34.0025 41.5812C33.9722 41.6729 33.9015 41.7187 33.7854 41.7187Z" fill="#231F20"/>
</g>
</g>
</g>
<path id="Vector_14" d="M56.0581 32.7146C55.9469 32.7146 55.8762 32.6708 55.8459 32.5833C55.8131 32.4938 55.8434 32.425 55.9368 32.375C61.2853 29.4917 60.3257 25.7854 60.2828 25.6292C60.2702 25.5792 60.2828 25.5354 60.3156 25.4938C60.3459 25.45 60.3939 25.425 60.452 25.4125C60.5101 25.4021 60.5656 25.4083 60.6187 25.4354C60.6692 25.4604 60.702 25.4979 60.7171 25.5458C60.7298 25.5875 61.798 29.6542 56.1818 32.6833C56.1439 32.7042 56.1035 32.7146 56.0581 32.7146ZM47.0277 27.9771C47.3257 22.7104 51.6843 21.5125 51.8687 21.4625C51.9293 21.4479 51.9722 21.4188 52 21.3729C52.0303 21.3271 52.0353 21.2813 52.0151 21.2333C51.9974 21.1833 51.9596 21.1479 51.9065 21.125C51.851 21.1021 51.7954 21.0979 51.7373 21.1125C51.6868 21.125 46.899 22.4271 46.5833 27.9583C46.5808 28.0104 46.5985 28.0542 46.6414 28.0917C46.6818 28.1292 46.7348 28.15 46.7954 28.1521H46.8055C46.8661 28.1521 46.9166 28.1354 46.9596 28.1C47.0025 28.0667 47.0252 28.025 47.0277 27.9771Z" fill="#A7895E"/>
<g id="Clip path group_4">
<mask id="mask3_15_205" style="mask-type:luminance" maskUnits="userSpaceOnUse" x="0" y="55" width="47" height="16">
<g id="dea8ffb59c">
<path id="Vector_15" d="M0.5 55.2H46.5606V70.1333H0.5V55.2Z" fill="white"/>
</g>
</mask>
<g mask="url(#mask3_15_205)">
<g id="Group_4">
<path id="Vector_16" d="M44.1364 59.7209H2.35101C2.10859 59.7188 1.87374 59.6813 1.65152 59.6042C1.42677 59.5271 1.2298 59.4188 1.05808 59.2771C0.886364 59.1354 0.755051 58.9729 0.661617 58.7875C0.568183 58.6042 0.522728 58.4104 0.520203 58.2104V56.7188C0.522728 56.5188 0.568183 56.3271 0.661617 56.1417C0.755051 55.9584 0.886364 55.7938 1.05808 55.6542C1.2298 55.5125 1.42677 55.4021 1.65152 55.3271C1.87374 55.25 2.10859 55.2104 2.35101 55.2104H44.1364C44.3788 55.2104 44.6111 55.25 44.8359 55.3271C45.0581 55.4021 45.2576 55.5125 45.4293 55.6542C45.5985 55.7938 45.7323 55.9584 45.8258 56.1417C45.9167 56.3271 45.9647 56.5188 45.9647 56.7188V58.2104C45.9647 58.4104 45.9167 58.6042 45.8258 58.7875C45.7323 58.9729 45.5985 59.1354 45.4293 59.2771C45.2576 59.4188 45.0581 59.5271 44.8359 59.6042C44.6111 59.6813 44.3788 59.7188 44.1364 59.7209ZM44.8258 68.4188V66.7854C44.8258 66.5667 44.7753 66.3563 44.6717 66.1542C44.5707 65.9521 44.4268 65.775 44.2399 65.6209C44.0505 65.4646 43.8359 65.3459 43.5909 65.2625C43.346 65.1792 43.0909 65.1354 42.8258 65.1354H40.8485C40.5833 65.1354 40.3283 65.1792 40.0833 65.2625C39.8384 65.3459 39.6237 65.4646 39.4369 65.6209C39.2475 65.775 39.1035 65.9521 39.0025 66.1542C38.9015 66.3563 38.8485 66.5667 38.8485 66.7854V68.4188C38.8485 68.6354 38.9015 68.8459 39.0025 69.0479C39.1035 69.25 39.2475 69.4292 39.4369 69.5834C39.6237 69.7375 39.8384 69.8563 40.0833 69.9396C40.3283 70.025 40.5833 70.0667 40.8485 70.0667H42.8258C43.0909 70.0667 43.346 70.025 43.5909 69.9396C43.8359 69.8563 44.0505 69.7375 44.2399 69.5834C44.4268 69.4292 44.5707 69.25 44.6717 69.0479C44.7753 68.8459 44.8258 68.6354 44.8258 68.4188Z" fill="#9DC0D4"/>
</g>
</g>
</g>
<path id="Vector_17" d="M71.447 60.6563C71.3359 60.6563 71.2626 60.6104 71.2323 60.5229C71.202 60.4333 71.2348 60.3625 71.3308 60.3146C78.3939 56.75 78.2323 49.3458 78.2298 49.2708C78.2273 49.2208 78.2475 49.1771 78.2904 49.1396C78.3333 49.1042 78.3838 49.0833 78.447 49.0833C78.5076 49.0833 78.5606 49.1 78.6035 49.1354C78.6465 49.1688 78.6717 49.2125 78.6742 49.2625C78.6793 49.3375 78.851 56.95 71.5631 60.6292C71.5278 60.6479 71.4899 60.6563 71.447 60.6563ZM71.4394 58.5292C76.6338 55.9083 76.5101 50.4833 76.5076 50.4292C76.5076 50.3792 76.4848 50.3354 76.4419 50.3021C76.399 50.2667 76.346 50.25 76.2853 50.25H76.2803C76.2172 50.25 76.1667 50.2688 76.1237 50.3063C76.0808 50.3438 76.0606 50.3875 76.0631 50.4375C76.0631 50.4917 76.1768 55.7083 71.2071 58.2146C71.154 58.2417 71.1212 58.2792 71.1061 58.3292C71.0934 58.3771 71.101 58.4229 71.1338 58.4667C71.1667 58.5104 71.2121 58.5375 71.2702 58.55C71.3308 58.5625 71.3864 58.5542 71.4394 58.5292Z" fill="#0077B6"/>
</g>
</g>
</svg>
