<svg width="695" height="184" viewBox="0 0 695 184" fill="none" xmlns="http://www.w3.org/2000/svg">
<path d="M216.329 40.3853V40.2545C216.329 27.0239 228.134 16.6466 244.148 16.6466C253.224 16.6466 259.643 19.1102 265.102 23.2606L256.691 32.1485C253.002 29.4234 249.313 27.8674 244.221 27.8674C236.77 27.8674 231.013 33.379 231.013 40.3212V40.4493C231.013 47.7786 236.843 53.0339 245.032 53.0339C248.499 53.0339 251.156 52.3854 253.297 51.1523V45.638H243.113V36.4297H266.875V56.8614C261.413 60.8169 253.813 63.865 244.443 63.865C228.356 63.865 216.329 54.1363 216.329 40.3853Z" fill="white"/>
<path d="M274.831 17.5535H316.375V28.2565H288.999V35.132H313.791V45.0556H288.999V52.254H316.742V62.9569H274.831V17.5535Z" fill="white"/>
<path d="M347.799 39.3472C352.67 39.3472 355.472 37.2707 355.472 33.9637V33.8329C355.472 30.2671 352.521 28.4494 347.727 28.4494H338.353V39.3472H347.799ZM324.037 17.5543H348.464C356.359 17.5543 361.818 19.3693 365.286 22.4841C368.313 25.0784 369.862 28.5802 369.862 33.0562V33.1844C369.862 40.1266 365.656 44.7307 359.238 47.1302L371.559 62.9577H355.032L344.626 49.2067H344.478H338.353V62.9577H324.037V17.5543Z" fill="white"/>
<path d="M406.596 45.0553L400.839 32.1477L395.013 45.0553H406.596ZM394.053 17.2303H407.85L429.84 62.9567H414.491L410.729 54.8508H390.804L387.115 62.9567H372.063L394.053 17.2303Z" fill="white"/>
<path d="M434.847 17.5535H449.16V35.9754L466.944 17.5535H483.915L464.363 37.0777L484.58 62.9569H467.388L454.401 46.0938L449.16 51.2157V62.9569H434.847V17.5535Z" fill="white"/>
<path d="M517.628 45.0553L511.871 32.1477L506.044 45.0553H517.628ZM505.084 17.2303H518.882L540.871 62.9567H525.522L521.76 54.8508H501.835L498.146 62.9567H483.095L505.084 17.2303Z" fill="white"/>
<path d="M545.875 17.5535H559.232L580.481 41.5537V17.5535H594.649V62.9569H582.105L560.043 38.0493V62.9569H545.875V17.5535Z" fill="white"/>
<path d="M218.1 68.4659H231.457L252.706 92.4661V68.4659H266.874V113.869H254.33L232.268 88.9616V113.869H218.1V68.4659Z" fill="white"/>
<path d="M306.412 95.9674L300.655 83.0598L294.828 95.9674H306.412ZM293.868 68.1424H307.666L329.655 113.869H314.306L310.544 105.763H290.62L286.93 113.869H271.879L293.868 68.1424Z" fill="white"/>
<path d="M334.662 68.4659H348.975V85.4598H367.348V68.4659H381.665V113.869H367.348V96.6165H348.975V113.869H334.662V68.4659Z" fill="white"/>
<path d="M410.948 102.713C419.507 102.713 425.188 98.5627 425.188 91.2335V91.1027C425.188 83.8375 419.507 79.6231 410.948 79.6231H405.118V102.713H410.948ZM390.804 68.4664H410.726C429.172 68.4664 439.872 77.8055 439.872 90.9079V91.0387C439.872 104.141 429.026 113.87 410.431 113.87H390.804V68.4664Z" fill="white"/>
<path d="M447.239 68.4659H461.552V102.843H486.569V113.869H447.239V68.4659Z" fill="white"/>
<path d="M492.979 68.4664H507.368V113.87H492.979V68.4664Z" fill="white"/>
<path d="M531.711 96.8753L512.083 68.4658H528.389L539.016 85.006L549.717 68.4658H565.727L546.1 96.6805V113.869H531.711V96.8753Z" fill="white"/>
<path d="M583.574 96.8754L563.947 68.4659H580.252L590.88 85.006L601.58 68.4659H617.591L597.964 96.6805V113.869H583.574V96.8754Z" fill="white"/>
<path d="M622.302 68.4664H636.692V113.87H622.302V68.4664Z" fill="white"/>
<path d="M646.131 68.4659H659.488L680.737 92.4661V68.4659H694.904V113.869H682.361L660.299 88.9616V113.869H646.131V68.4659Z" fill="white"/>
<path d="M243.114 154.661C247.468 154.661 249.976 153.169 249.976 150.51V150.38C249.976 147.916 247.763 146.293 242.965 146.293H232.046V154.661H243.114ZM241.049 137.472C245.4 137.472 247.836 136.175 247.836 133.517V133.386C247.836 130.922 245.622 129.494 241.344 129.494H232.046V137.472H241.049ZM218.1 119.376H244.59C251.084 119.376 255.657 120.804 258.685 123.462C260.749 125.277 262.003 127.679 262.003 130.791V130.922C262.003 136.175 258.609 139.29 254.036 141.041C260.306 142.856 264.293 145.97 264.293 152.131V152.261C264.293 160.044 257.06 164.779 244.738 164.779H218.1V119.376Z" fill="white"/>
<path d="M270.847 119.376H312.391V130.078H285.015V136.954H309.807V146.878H285.015V154.076H312.759V164.779H270.847V119.376Z" fill="white"/>
<path d="M343.814 141.169C348.684 141.169 351.49 139.093 351.49 135.786V135.655C351.49 132.089 348.538 130.271 343.741 130.271H334.367V141.169H343.814ZM320.054 119.376H344.478C352.373 119.376 357.836 121.191 361.303 124.306C364.327 126.9 365.879 130.402 365.879 134.878V135.006C365.879 141.949 361.671 146.553 355.252 148.952L367.576 164.78H351.046L340.64 151.029H340.492H334.367V164.78H320.054V119.376Z" fill="white"/>
<path d="M369.186 158.033L377.156 149.666C382.245 153.234 387.929 155.113 393.905 155.113C397.743 155.113 399.808 153.947 399.808 152.001V151.871C399.808 149.992 398.11 148.953 391.102 147.525C380.107 145.321 371.621 142.596 371.621 133.257V133.126C371.621 124.694 379.221 118.598 391.618 118.598C400.4 118.598 407.262 120.672 412.867 124.63L405.71 133.515C400.989 130.595 395.824 129.039 391.248 129.039C387.78 129.039 386.083 130.337 386.083 131.959V132.088C386.083 134.164 387.853 135.072 395.013 136.499C406.892 138.768 414.27 142.142 414.27 150.64V150.768C414.27 160.043 405.932 165.558 393.389 165.558C384.24 165.558 375.532 163.027 369.186 158.033Z" fill="white"/>
<path d="M450.49 146.877L444.733 133.97L438.906 146.877H450.49ZM437.947 119.052H451.744L473.734 164.779H458.385L454.622 156.673H434.698L431.008 164.779H415.957L437.947 119.052Z" fill="white"/>
<path d="M484.718 130.402H469.223V119.376H514.529V130.402H499.031V164.78H484.718V130.402Z" fill="white"/>
<path d="M520.125 144.866V119.377H534.661V144.607C534.661 151.157 538.426 154.272 544.18 154.272C549.937 154.272 553.699 151.288 553.699 144.93V119.377H568.237V144.541C568.237 159.202 558.718 165.621 544.034 165.621C529.35 165.621 520.125 159.071 520.125 144.866Z" fill="white"/>
<path fill-rule="evenodd" clip-rule="evenodd" d="M40.7677 158.544L40.7646 66.6776L58.8282 75.8458V149.357L108.661 174.646L90.5676 183.833L40.7677 158.544Z" fill="white"/>
<path fill-rule="evenodd" clip-rule="evenodd" d="M122.261 107.989L122.267 34.478L72.4277 9.18068L90.5247 0.00177837L140.325 25.2885V117.158L122.261 107.989Z" fill="white"/>
<path fill-rule="evenodd" clip-rule="evenodd" d="M18.0939 147.041L0.0182185 137.865C0.0182185 107.246 0.0030364 76.5807 0 45.9399L49.7756 20.6879L99.5725 45.9959C99.5725 73.5566 99.5695 101.112 99.5695 128.675L131.272 144.762L162.997 128.659C162.994 98.0399 162.994 67.4178 162.994 36.7957L181.075 45.9719C181.075 76.61 181.078 107.246 181.091 137.889L131.315 163.152L81.4726 137.857C81.4847 110.278 81.5029 82.7409 81.5181 55.1615L49.8181 39.0724L18.0939 55.1695V147.041Z" fill="#EAC64C"/>
</svg>
