<svg width="695" height="184" viewBox="0 0 695 184" fill="none" xmlns="http://www.w3.org/2000/svg">
<path d="M216.424 40.3835V40.2527C216.424 27.0221 228.229 16.6448 244.243 16.6448C253.319 16.6448 259.738 19.1084 265.197 23.2588L256.787 32.1467C253.097 29.4216 249.408 27.8656 244.316 27.8656C236.865 27.8656 231.108 33.3772 231.108 40.3194V40.4475C231.108 47.7768 236.938 53.0321 245.127 53.0321C248.594 53.0321 251.251 52.3836 253.392 51.1505V45.6362H243.208V36.4279H266.971V56.8596C261.508 60.8151 253.908 63.8632 244.538 63.8632C228.451 63.8632 216.424 54.1345 216.424 40.3835Z" fill="black"/>
<path d="M274.926 17.5518H316.47V28.2547H289.094V35.1302H313.886V45.0538H289.094V52.2522H316.838V62.9552H274.926V17.5518Z" fill="black"/>
<path d="M347.895 39.3455C352.765 39.3455 355.568 37.2689 355.568 33.962V33.8312C355.568 30.2653 352.616 28.4477 347.822 28.4477H338.448V39.3455H347.895ZM324.132 17.5526H348.56C356.454 17.5526 361.914 19.3675 365.381 22.4823C368.409 25.0767 369.957 28.5785 369.957 33.0545V33.1826C369.957 40.1248 365.752 44.7289 359.333 47.1284L371.654 62.956H355.127L344.722 49.205H344.573H338.448V62.956H324.132V17.5526Z" fill="black"/>
<path d="M406.692 45.0535L400.935 32.146L395.108 45.0535H406.692ZM394.148 17.2286H407.946L429.935 62.9549H414.586L410.824 54.849H390.899L387.21 62.9549H372.159L394.148 17.2286Z" fill="black"/>
<path d="M434.942 17.5518H449.255V35.9736L467.04 17.5518H484.01L464.459 37.076L484.675 62.9552H467.483L454.496 46.092L449.255 51.214V62.9552H434.942V17.5518Z" fill="black"/>
<path d="M517.723 45.0535L511.966 32.146L506.139 45.0535H517.723ZM505.18 17.2286H518.977L540.966 62.9549H525.617L521.855 54.849H501.931L498.241 62.9549H483.19L505.18 17.2286Z" fill="black"/>
<path d="M545.97 17.5518H559.327L580.576 41.552V17.5518H594.744V62.9552H582.2L560.138 38.0475V62.9552H545.97V17.5518Z" fill="black"/>
<path d="M218.195 68.4641H231.552L252.801 92.4643V68.4641H266.969V113.867H254.426L232.363 88.9598V113.867H218.195V68.4641Z" fill="black"/>
<path d="M306.507 95.9656L300.75 83.058L294.923 95.9656H306.507ZM293.964 68.1406H307.761L329.751 113.867H314.402L310.64 105.761H290.715L287.026 113.867H271.974L293.964 68.1406Z" fill="black"/>
<path d="M334.757 68.4641H349.07V85.458H367.444V68.4641H381.76V113.867H367.444V96.6147H349.07V113.867H334.757V68.4641Z" fill="black"/>
<path d="M411.043 102.711C419.602 102.711 425.284 98.5609 425.284 91.2317V91.1009C425.284 83.8357 419.602 79.6213 411.043 79.6213H405.213V102.711H411.043ZM390.899 68.4646H410.821C429.267 68.4646 439.968 77.8037 439.968 90.9061V91.0369C439.968 104.139 429.122 113.868 410.527 113.868H390.899V68.4646Z" fill="black"/>
<path d="M447.334 68.4641H461.648V102.842H486.664V113.867H447.334V68.4641Z" fill="black"/>
<path d="M493.074 68.4646H507.464V113.868H493.074V68.4646Z" fill="black"/>
<path d="M531.806 96.8736L512.179 68.4641H528.484L539.112 85.0042L549.812 68.4641H565.823L546.195 96.6787V113.867H531.806V96.8736Z" fill="black"/>
<path d="M583.669 96.8736L564.042 68.4641H580.347L590.975 85.0042L601.675 68.4641H617.686L598.059 96.6787V113.867H583.669V96.8736Z" fill="black"/>
<path d="M622.397 68.4646H636.787V113.868H622.397V68.4646Z" fill="black"/>
<path d="M646.226 68.4641H659.583L680.832 92.4643V68.4641H695V113.867H682.456L660.394 88.9598V113.867H646.226V68.4641Z" fill="black"/>
<path d="M243.209 154.659C247.563 154.659 250.071 153.167 250.071 150.509V150.378C250.071 147.914 247.858 146.292 243.06 146.292H232.141V154.659H243.209ZM241.144 137.47C245.496 137.47 247.931 136.173 247.931 133.515V133.384C247.931 130.92 245.717 129.492 241.439 129.492H232.141V137.47H241.144ZM218.195 119.374H244.685C251.18 119.374 255.752 120.802 258.78 123.46C260.845 125.275 262.099 127.677 262.099 130.79V130.92C262.099 136.173 258.704 139.288 254.131 141.039C260.401 142.854 264.388 145.969 264.388 152.129V152.26C264.388 160.043 257.155 164.777 244.834 164.777H218.195V119.374Z" fill="black"/>
<path d="M270.942 119.374H312.486V130.077H285.11V136.952H309.902V146.876H285.11V154.074H312.854V164.777H270.942V119.374Z" fill="black"/>
<path d="M343.909 141.167C348.779 141.167 351.585 139.091 351.585 135.784V135.653C351.585 132.087 348.633 130.27 343.836 130.27H334.462V141.167H343.909ZM320.149 119.375H344.574C352.468 119.375 357.931 121.189 361.398 124.304C364.423 126.899 365.974 130.4 365.974 134.876V135.005C365.974 141.947 361.766 146.551 355.347 148.95L367.672 164.778H351.141L340.736 151.027H340.587H334.462V164.778H320.149V119.375Z" fill="black"/>
<path d="M369.281 158.032L377.251 149.664C382.34 153.233 388.024 155.112 394 155.112C397.838 155.112 399.903 153.945 399.903 152V151.869C399.903 149.99 398.205 148.951 391.197 147.524C380.203 145.319 371.716 142.594 371.716 133.255V133.124C371.716 124.692 379.316 118.596 391.714 118.596C400.495 118.596 407.357 120.67 412.962 124.628L405.806 133.514C401.084 130.594 395.919 129.038 391.343 129.038C387.876 129.038 386.178 130.335 386.178 131.958V132.086C386.178 134.162 387.949 135.07 395.108 136.498C406.987 138.766 414.365 142.14 414.365 150.638V150.766C414.365 160.041 406.027 165.556 393.484 165.556C384.335 165.556 375.627 163.025 369.281 158.032Z" fill="black"/>
<path d="M450.585 146.875L444.828 133.968L439.001 146.875H450.585ZM438.042 119.05H451.839L473.829 164.777H458.48L454.718 156.671H434.793L431.104 164.777H416.052L438.042 119.05Z" fill="black"/>
<path d="M484.813 130.4H469.318V119.375H514.624V130.4H499.127V164.778H484.813V130.4Z" fill="black"/>
<path d="M520.221 144.865V119.375H534.756V144.606C534.756 151.156 538.521 154.27 544.275 154.27C550.032 154.27 553.794 151.286 553.794 144.929V119.375H568.332V144.539C568.332 159.2 558.813 165.619 544.129 165.619C529.445 165.619 520.221 159.069 520.221 144.865Z" fill="black"/>
<path fill-rule="evenodd" clip-rule="evenodd" d="M40.8629 158.542L40.8599 66.6758L58.9234 75.844V149.355L108.757 174.645L90.6628 183.832L40.8629 158.542Z" fill="black"/>
<path fill-rule="evenodd" clip-rule="evenodd" d="M122.356 107.988L122.362 34.4763L72.5229 9.17891L90.6199 8.35368e-06L140.42 25.2867V117.156L122.356 107.988Z" fill="black"/>
<path fill-rule="evenodd" clip-rule="evenodd" d="M18.1891 147.039L0.113433 137.863C0.113433 107.244 0.0982512 76.5789 0.0952148 45.9381L49.8708 20.6861L99.6677 45.9941C99.6677 73.5549 99.6647 101.11 99.6647 128.674L131.368 144.76L163.092 128.658C163.089 98.0382 163.089 67.416 163.089 36.7939L181.171 45.9701C181.171 76.6083 181.174 107.244 181.186 137.887L131.41 163.15L81.5678 137.855C81.5799 110.276 81.5981 82.7391 81.6133 55.1597L49.9134 39.0706L18.1891 55.1677V147.039Z" fill="black"/>
</svg>
